# AST/ASF file generated using VICON BodyLanguage
# -----------------------------------------------
:version 1.10
:name VICON
:units
  mass 1.0
  length 0.45
  angle deg
:documentation
   .ast/.asf automatically generated from VICON data using
   VICON BodyBuilder and BodyLanguage model FoxedUp or BRILLIANT.MOD
:root
   order TX TY TZ RX RY RZ
   axis XYZ
   position 0 0 0  
   orientation 0 0 0 
:bonedata
  begin
     id 1 
     name lhipjoint
     direction 0.588788 -0.725889 0.355548 
     length 2.37778 
     axis 0 0 0  XYZ
  end
  begin
     id 2 
     name lfemur
     direction 0.34202 -0.939693 0  
     length 6.86393  
     axis 0 0 20  XYZ
    dof rx ry rz
    limits (-160.0 20.0)
           (-70.0 70.0)
           (-60.0 70.0)
  end
  begin
     id 3 
     name ltibia
     direction 0.34202 -0.939693 0   
     length 7.32851   
     axis 0 0 20   XYZ
    dof rx
    limits (-10.0 170.0)
  end
  begin
     id 4 
     name lfoot
     direction 0.0626533 -0.172138 0.983078   
     length 1.98929   
     axis -90 7.62852e-016 20   XYZ
    dof rx rz
    limits (-45.0 90.0)
           (-70.0 20.0)
  end
  begin
     id 5 
     name ltoes
     direction 1.53647e-011 -4.21734e-011 1   
     length 1.00479   
     axis -90 7.62852e-016 20   XYZ
    dof rx
    limits (-90.0 20.0)
  end
  begin
     id 6 
     name rhipjoint
     direction -0.59141 -0.724168 0.354705   
     length 2.38343  
     axis 0 0 0  XYZ 
  end
  begin
     id 7 
     name rfemur
     direction -0.34202 -0.939693 0   
     length 6.95589   
     axis 0 0 -20   XYZ
    dof rx ry rz
    limits (-160.0 20.0)
           (-70.0 70.0)
           (-70.0 60.0)
  end
  begin
     id 8 
     name rtibia
     direction -0.34202 -0.939693 0   
     length 7.32327   
     axis 0 0 -20   XYZ
    dof rx
    limits (-10.0 170.0)
 end
 begin
     id 9 
     name rfoot
     direction -0.0660461 -0.18146 0.981178   
     length 1.85272  
     axis -90 -7.62852e-016 -20   XYZ
    dof rx rz
    limits (-45.0 90.0)
           (-20.0 70.0)
  end
  begin
     id 10 
     name rtoes
     direction -1.53586e-011 -4.21988e-011 1   
     length 0.93746   
     axis -90 -7.62852e-016 -20   XYZ
    dof rx
    limits (-90.0 20.0)
  end
  begin
     id 11 
     name lowerback
     direction -0.0107982 0.991059 0.13299   
     length 1.98691   
     axis 0 0 0   XYZ
    dof rx ry rz
    limits (-20.0 45.0)
           (-30.0 30.0)
           (-30.0 30.0)
  end
  begin
     id 12 
     name upperback
     direction 0.0076296 0.999916 0.0104576   
     length 1.99501   
     axis 0 0 0   XYZ
    dof rx ry rz
    limits (-20.0 45.0)
           (-30.0 30.0)
           (-30.0 30.0)
  end
  begin
     id 13 
     name thorax
     direction 0.01176 0.998615 -0.0512909   
     length 2.03144   
     axis 0 0 0   XYZ
    dof rx ry rz
    limits (-20.0 45.0)
           (-30.0 30.0)
           (-30.0 30.0)
  end
  begin
     id 14 
     name lowerneck
     direction -0.0171909 0.999644 0.0204011   
     length 1.71818   
     axis 0 0 0   XYZ
    dof rx ry rz
    limits (-20.0 45.0)
           (-30.0 30.0)
           (-30.0 30.0)
  end
  begin
     id 15 
     name upperneck
     direction 0.0250902 0.997482 -0.0663316   
     length 1.66199   
     axis 0 0 0   XYZ
    dof rx ry rz
    limits (-20.0 45.0)
           (-30.0 30.0)
           (-30.0 30.0)
  end
  begin
     id 16
     name head
     direction 0.00881535 0.99956 -0.0283365  
     length 1.81545  
     axis 0 0 0   XYZ
    dof rx ry rz
    limits (-20.0 45.0)
           (-30.0 30.0)
           (-30.0 30.0)
  end
  begin
     id 17 
     name lclavicle
     direction 0.840411 0.486876 -0.238035  
     length 3.30409  
     axis 0 0 0   XYZ
    dof ry rz
    limits (-20.0 10.0)
           (0.0 20.0)
  end
  begin
     id 18 
     name lhumerus
     direction 1 -4.48977e-011 -5.16239e-027   
     length 4.62672   
     axis 180 -30 -90   XYZ
    dof rx ry rz
    limits (-60.0 90.0)
           (-90.0 90.0)
           (-90.0 90.0)
  end
  begin
     id 19
     name lradius
     direction 1 -4.48977e-011 -8.71171e-027   
     length 3.11018   
     axis 180 -30 -90   XYZ
    dof rx
    limits (-10.0 170.0)
  end
  begin
     id 20
     name lwrist
     direction 1 -4.48912e-011 -1.03764e-026   
     length 1.55509   
     axis 9.09556e-015 90 90   XYZ
    dof ry
    limits (-180.0 0.0)
 end
  begin
     id 21 
     name lhand
     direction 1 -4.49072e-011 -2.07528e-026   
     length 0.743834   
     axis 1.3242e-014 90 90   XYZ
    dof rx rz
    limits (-90.0 90.0)
           (-45.0 45.0)
  end
  begin
     id 22 
     name lfingers
     direction 1 -4.48909e-011 -4.15056e-026   
     length 0.599698   
     axis 2.64841e-014 90 90   XYZ
    dof rx
    limits (0.0 90.0)
  end
  begin
     id 23
     name lthumb
     direction 0.707107 -6.35013e-011 0.707107   
     length 0.86105   
     axis -90 45 2.85299e-015   XYZ
    dof rx rz
    limits (-45.0 45.0)
           (-45.0 45.0)
  end
  begin
     id 24 
     name rclavicle
     direction -0.835208 0.500237 -0.228452   
     length 3.2716  
     axis 0 0 0   XYZ 
    dof ry rz
    limits (-10.0 20.0)
           (-20.0 0.0)
  end
  begin
     id 25 
     name rhumerus
     direction -1 -4.48978e-011 -5.1953e-028  
     length 4.55919   
     axis 180 30 90   XYZ
    dof rx ry rz
    limits (-90.0 60.0)
           (-90.0 90.0)
           (-90.0 90.0)
  end
  begin
     id 26 
     name rradius
     direction -1 -4.48961e-011 -5.99546e-027   
     length 3.22748   
     axis 180 30 90   XYZ
    dof rx
    limits (-10.0 170.0)
  end
  begin
     id 27 
     name rwrist
     direction -1 -4.48986e-011 -1.03764e-026   
     length 1.61374   
     axis 9.09556e-015 -90 -90   XYZ
    dof ry
    limits (-180.0 0.0)
  end
  begin
     id 28
     name rhand
     direction -1 -4.4899e-011 -2.07528e-026   
     length 0.700882   
     axis 1.3242e-014 -90 -90   XYZ
    dof rx rz
    limits (-90.0 90.0)
           (-45.0 45.0)
  end
  begin
     id 29
     name rfingers
     direction -1 -4.48991e-011 -4.15056e-026   
     length 0.565069   
     axis 2.64841e-014 -90 -90   XYZ
    dof rx
    limits (0.0 90.0)
  end
  begin
     id 30
     name rthumb
     direction -0.707107 -6.34804e-011 0.707107   
     length 0.811329   
     axis -90 -45 -2.85299e-015   XYZ
    dof rx rz
    limits (-45.0 45.0)
           (-45.0 45.0)
  end
:hierarchy
  begin
    root lhipjoint rhipjoint lowerback
    lhipjoint lfemur
    lfemur ltibia
    ltibia lfoot
    lfoot ltoes
    rhipjoint rfemur
    rfemur rtibia
    rtibia rfoot
    rfoot rtoes
    lowerback upperback
    upperback thorax
    thorax lowerneck lclavicle rclavicle
    lowerneck upperneck
    upperneck head
    lclavicle lhumerus
    lhumerus lradius
    lradius lwrist
    lwrist lhand lthumb
    lhand lfingers
    rclavicle rhumerus
    rhumerus rradius
    rradius rwrist
    rwrist rhand rthumb
    rhand rfingers
  end

#!OML:ASF F:\VICON\USERDATA\INSTALL\SteveWalk\SteveWalk.ASF
:FULLY-SPECIFIED
:DEGREES
168
root 0.654378 16.453 -12.4371 17.6253 -7.07132 -3.38666
lowerback -15.9924 -0.649973 3.48828
upperback -2.59736 -1.63935 2.47067
thorax 6.17034 -0.75785 0.303692
lowerneck 3.60734 -9.77836 -7.70375
upperneck 1.84135 -13.3031 1.5927
head 0.616373 -6.70054 1.76355
rclavicle 4.24405e-014 -6.36111e-015
rhumerus -24.4585 20.244 -87.9877
rradius 74.748
rwrist -30.0272
rhand -17.8109 -43.3677
rfingers 7.12502
rthumb 8.45287 -433.178
lclavicle 4.24405e-014 -6.36111e-015
lhumerus -39.4867 17.786 70.6083
lradius 28.0897
lwrist -6.98501
lhand -15.1746 -17.2187
lfingers 7.12502
lthumb 10.9963 12.4733
rfemur -10.6447 -5.34112 23.5819
rtibia 25.2576
rfoot -23.359 14.4282
rtoes -9.9487
lfemur -43.1461 4.94834 -16.0136
ltibia 13.7976
lfoot -9.61781 4.02691
ltoes -13.3164
169
root 0.678178 16.4373 -12.2808 17.5304 -7.33592 -3.54235
lowerback -15.0301 -0.677832 3.28296
upperback -3.24215 -1.58118 2.7144
thorax 4.97334 -0.756357 0.704412
lowerneck 4.0092 -9.73288 -7.95715
upperneck 2.2035 -13.2791 1.29261
head 0.658202 -6.69887 1.72226
rclavicle -1.05107e-014 -2.62396e-014
rhumerus -25.6146 20.3503 -88.0394
rradius 74.8303
rwrist -29.7827
rhand -17.7191 -43.8637
rfingers 7.12502
rthumb 8.54138 -433.671
lclavicle -1.05107e-014 -2.62396e-014
lhumerus -40.7985 17.7684 70.4663
lradius 28.3488
lwrist -7.06601
lhand -15.1007 -17.3984
lfingers 7.12502
lthumb 11.0676 12.2898
rfemur -10.0232 -5.17701 23.3923
rtibia 25.4981
rfoot -23.4095 14.3394
rtoes -11.984
lfemur -42.8838 4.16994 -15.3649
ltibia 14.7808
lfoot -9.05128 4.59084
ltoes -11.3688
170
root 0.694621 16.414 -12.1322 17.44 -7.69566 -3.6379
lowerback -15.1092 -0.627676 3.23559
upperback -3.15786 -1.51203 2.65581
thorax 5.10599 -0.720567 0.681053
lowerneck 4.11902 -9.68787 -7.88604
upperneck 2.07008 -13.228 1.39737
head 0.597929 -6.6704 1.75539
rclavicle 2.48481e-016 -1.43125e-014
rhumerus -25.5811 20.4798 -88.2125
rradius 75.0812
rwrist -30.2773
rhand -18.731 -45.9429
rfingers 7.12502
rthumb 7.56479 -435.788
lclavicle 2.48481e-016 -1.43125e-014
lhumerus -40.5632 18.0342 70.2624
lradius 27.9977
lwrist -7.57815
lhand -15.4693 -17.7853
lfingers 7.12502
lthumb 10.7121 11.9216
rfemur -9.47993 -4.8524 23.1786
rtibia 25.7131
rfoot -23.266 14.3662
rtoes -14.2224
lfemur -42.9352 4.10135 -15.3205
ltibia 16.0393
lfoot -8.00851 4.82491
ltoes -15.7092
171
root 0.713042 16.4045 -11.9875 17.4105 -7.9982 -3.49348
lowerback -15.0405 -0.666859 2.8914
upperback -3.2289 -1.49896 2.56881
thorax 5.00013 -0.720071 0.786866
lowerneck 4.31907 -9.67661 -7.7285
upperneck 2.00709 -13.2235 1.3434
head 0.529363 -6.66589 1.72762
rclavicle -4.29872e-015 3.97569e-015
rhumerus -25.7403 20.6484 -88.4376
rradius 75.3145
rwrist -30.8497
rhand -19.4334 -46.8039
rfingers 7.12502
rthumb 6.88676 -436.672
lclavicle -4.29872e-015 3.97569e-015
lhumerus -40.444 18.2951 69.9994
lradius 27.4993
lwrist -8.04936
lhand -15.8443 -17.7632
lfingers 7.12502
lthumb 10.3503 11.9621
rfemur -9.26953 -4.60636 22.7489
rtibia 26.0904
rfoot -22.7967 14.357
rtoes -17.3764
lfemur -43.0605 4.07638 -15.6364
ltibia 17.1475
lfoot -6.31717 4.69997
ltoes -17.5874
172
root 0.735715 16.4057 -11.8372 17.3608 -8.20877 -3.32315
lowerback -15.035 -0.752486 2.54892
upperback -3.27013 -1.55422 2.5149
thorax 4.96096 -0.75207 0.912981
lowerneck 4.37688 -9.64831 -7.70051
upperneck 2.13859 -13.1874 1.25481
head 0.551103 -6.65042 1.69513
rclavicle 4.9075e-014 -3.22031e-014
rhumerus -25.8257 20.7177 -88.5298
rradius 75.3949
rwrist -31.1794
rhand -19.3721 -45.6417
rfingers 7.12502
rthumb 6.94599 -435.508
lclavicle 4.9075e-014 -3.22031e-014
lhumerus -40.5357 18.5367 69.7885
lradius 27.3068
lwrist -7.94384
lhand -15.6709 -17.6404
lfingers 7.12502
lthumb 10.5176 12.0765
rfemur -9.05181 -4.21408 22.2961
rtibia 26.5905
rfoot -22.2847 14.6688
rtoes -16.8159
lfemur -43.1157 3.76527 -15.7511
ltibia 18.1165
lfoot -4.41788 4.39172
ltoes -18.001
173
root 0.75572 16.4027 -11.6889 17.2398 -8.46523 -3.06577
lowerback -15.03 -0.816644 2.08574
upperback -3.224 -1.56393 2.4382
thorax 5.01749 -0.761734 1.09154
lowerneck 4.38393 -9.61578 -7.65529
upperneck 2.17809 -13.1423 1.22946
head 0.555274 -6.6283 1.67984
rclavicle -1.37658e-014 1.43125e-014
rhumerus -25.6853 20.5584 -88.5005
rradius 75.1622
rwrist -30.8571
rhand -19.0846 -45.0062
rfingers 7.12502
rthumb 7.22352 -434.863
lclavicle -1.37658e-014 1.43125e-014
lhumerus -40.5552 18.5937 69.7205
lradius 27.2849
lwrist -7.75614
lhand -15.6294 -17.6023
lfingers 7.12502
lthumb 10.5577 12.1126
rfemur -8.68563 -3.62869 21.7146
rtibia 27.1564
rfoot -21.9489 14.4597
rtoes -18.4838
lfemur -43.1621 3.42721 -15.8381
ltibia 19.1476
lfoot -2.89451 3.845
ltoes -17.1227
